<?xml version="1.0" encoding="UTF-8"?><svg xmlns="http://www.w3.org/2000/svg" viewBox="0 0 464.4 334.1"><polygon points="46.3 7.1 135.9 13.8 236.9 21.4 350.9 34.6 413.7 41.3 423.5 47.2 428.6 86.9 433.3 155 434.7 223.3 433.7 237.5 396.5 241.9 396.1 264.1 394.4 281.8 384.2 281.1 367 253.9 354.4 250.3 328.1 256.4 244.7 275.1 166.3 285.7 96.9 290.3 65.1 280.3 49.8 246.2 40.9 168.4 34.2 68.1 31.7 24.3 37.4 13.1 46.3 7.1" fill="#ce191b"/><g><g><path d="m383.2,42c-37-4.7-74-9-111.1-12.7-37.1-3.7-74.2-7-111.4-9.7-18.6-1.4-37.2-2.6-55.8-3.8-9.3-.6-18.6-1.1-27.9-1.6-8.5-.5-17.2-1.3-25.7-1.2-3,0-6.2.2-8.9,1.6-2.8,1.4-4.6,4.2-5.5,7.2-1,3.4-.4,6.9,0,10.4.4,4.5.7,8.9,1,13.4,1.3,17.3,2.3,34.6,3.2,52,2,35.1,3.9,70.2,7.9,105.1,2,17.1,4.2,34.2,7.9,51,2.3,10.9,7.8,21.9,17.4,27.6,5,2.9,10.8,4.2,16.7,4.2,8.4,0,16.8-.6,25.2-1.1,17.7-1,35.4-2.3,53-4.1,35.3-3.5,70.3-8.6,105.1-15.3,17.4-3.3,34.7-7.1,51.9-11.2,8.6-2.1,17.1-4.4,25.7-6.4,4.3-1,8.7-1.2,12.9.5,3.8,1.6,6.9,4.2,8.8,7.7,4.1,7.3,6.8,13.7,12.1,20.1.3.4.6.7,1,1.1.2.2.3.3.5.5-.1-.1-.6-.6,0,0,.6.6,1.3,1.1,2,1.6.5.3-.8-.4-.3-.1.2,0,.3.2.5.2.7.4.5,0,0,0,.7,0,.7,0,0,.1.1,0,.3,0,.4,0,.8-.1-1,.3-.2,0,.6-.2-1,.3,0,0,.2,0,.5-.7-.2.2.1-.2.3-.3.4-.5.1-.2.2-.3.4-.5,0,.1-.4.8,0,0,.3-.6.5-1.1.7-1.7,1.3-3.4,1.7-7.3,1.7-10.9.1-8.2-1.4-16.3-1.1-24.4,0-1.9,1.9-3.4,3.7-3.7,12.6-2.3,25.5-2.2,38.1-4.5-1.2,1.2-2.5,2.5-3.7,3.7.5-6.2.7-12.4.7-18.7,0-.9,0-1.9,0-2.8,0-.4,0-.9,0-1.3,0-.3,0-1.5,0-1.2,0,.4,0-.8,0-1,0-.5,0-1.1,0-1.6,0-1,0-2,0-3.1,0-4.4-.1-8.8-.2-13.1-.5-19.5-1.4-39-2.6-58.4-1.1-18.4-2.4-36.8-4.1-55.1-1-10.9-1.6-22.2-3.9-33,0-.3-.1-.6-.2-.9-.2-1.1.3.8,0,.2-.3-.7-.8-1.3.2,0,0,0,1.2,1,1.4,1.1-.3-.1-.6-.4-.9-.5-.6-.3-1.2-.6-1.8-.9-.4-.1-.7-.3-1.1-.4-.2,0-.4-.1-.6-.2-1-.3.5.1,0,0-1.2-.3-2.5-.6-3.7-.8-4.5-.8-9-1.3-13.5-1.8-3.6-.4-7.3-.8-11-1.2-5.5-.6-4.4-9.1,1.1-8.5,9.4,1,19.3,1.5,28.5,3.9,3.3.9,7.8,2.2,9.2,5.6,1.3,3.2,1.6,7.1,2,10.4.8,6.1,1.5,12.2,2.1,18.3,1.7,17.9,3.1,35.8,4.2,53.7,1.3,20.1,2.3,40.1,2.9,60.2.5,16,.9,32.2,0,48.2,0,1.3-.2,2.6-.3,3.9-.2,1.9-1.9,3.4-3.7,3.7-12.6,2.3-25.5,2.2-38.1,4.5,1.2-1.2,2.5-2.5,3.7-3.7-.3,8.7,1.5,17.3,1.1,26-.3,5.7-1.4,13.9-6.4,17.7-8.3,6.2-16.4-5.6-20.1-11.6-2.5-4-4.7-8.1-6.9-12.2-.4-.7-.7-1.4-1.1-2-.6-1.1-.4-1-1.2-1.9-2.3-2.6-5.7-3.5-9.1-3-4.4.6-8.7,2.1-13,3.2-4.4,1.1-8.9,2.2-13.3,3.3-8.9,2.1-17.8,4.2-26.7,6.1-35.4,7.7-71.2,13.7-107.1,18.1-18.1,2.2-36.3,4-54.5,5.4-9.1.7-18.2,1.3-27.3,1.7-8.7.5-17.7,1.4-26.4.8-12.8-.8-24.3-7.6-31.2-18.4-8.2-12.8-9.8-28.4-12.1-43.1-5.6-35.5-8.2-71.5-10.3-107.4-1.1-17.9-2-35.9-3.1-53.8-.5-9-1.1-17.9-1.8-26.9-.3-4.5-.7-8.9-1.1-13.3-.4-4.4-.5-8.4.9-12.6,2.5-7.7,9-12.5,16.9-13.6,3.6-.5,7.2-.3,10.8-.2,4.8.2,9.6.5,14.4.7,19,1,38.1,2.1,57.1,3.4,38.2,2.5,76.3,5.6,114.4,9.1,38.1,3.6,76.1,7.6,114.1,12.3,9.2,1.1,18.5,2.3,27.7,3.5,5.5.7,4.4,9.2-1.1,8.5h0Z" fill="#231f20"/><path d="m60.4,311.6c-3.5-4.6-7-9.2-10.5-13.8-1.4-1.8-1.1-4.7.8-6,1.9-1.3,4.6-1.1,6,.8,3.5,4.6,7,9.2,10.5,13.8,1.4,1.8,1.1,4.7-.8,6-1.9,1.3-4.6,1.1-6-.8h0Z" fill="#231f20"/><path d="m53.9,326.7c-2.7-.1-4.8-2.2-6.6-4-1.8-1.9-3.4-4-5-6.1-3.5-4.8-6.6-9.9-10.4-14.5-1.4-1.8-1.1-4.7.8-6,2-1.4,4.5-1.1,6,.8,3.6,4.4,6.6,9.2,9.9,13.8,1.5,2.1,3.1,4.3,4.9,6.2,0,0,.4.4.5.5-.5-.5-.6-.6-.3-.3,0,0,.2.2.3.3.4.3.7.6,1.1.9.1,0,.3.2.4.3-.9-.8-.8-.4-.3-.2.7.3.3-.2-.5-.1.1,0,.3,0,.4,0,2.3.1,4.1,2.7,3.7,4.8-.4,2.5-2.4,3.8-4.8,3.7h0Z" fill="#231f20"/><path d="m439.9,46.1c-.8-2.9-2-5.6-3.4-8.3-.2-.3-.8-1.4-.1-.2-.2-.3-.4-.6-.6-.9-.4-.6-.8-1.2-1.2-1.8-.9-1.2-1.8-2.4-2.8-3.6-1.5-1.7-1-4.8.8-6,2-1.4,4.5-1,6,.8,4.2,4.8,7.4,10.6,9.2,16.7.3,1.1.5,2.2,0,3.3-.4,1-1.3,1.9-2.3,2.3-1.1.4-2.3.5-3.3,0-.9-.5-2-1.2-2.3-2.3h0Z" fill="#231f20"/><path d="m451.4,39.8c-.8-1.8-1.7-3.5-2.6-5.2.2.3.4.6.6,1-1.6-2.7-3.4-5.2-5.4-7.5-.7-.8-1-2.2-.8-3.2s.8-2.2,1.7-2.8c2-1.4,4.4-1,6,.8,3.6,4.1,6.5,8.8,8.6,13.7.9,2.1-.1,4.8-2.3,5.6-2.2.8-4.7,0-5.6-2.3h0Z" fill="#231f20"/></g><path d="m9.5,186.5c0,.2,0,.4,0,.5,0,.5,0-.2,0-.2.1.2,0,.6,0,.9,0,.1.1.4.1.5,0,0-.2-.7,0-.2.1.3.3.6.4.9.2.5-.3-.4,0-.1,0,0,.2.2.2.3,0,0,.1.2.2.3,0,0,0,0,.1.1.2.2.1.2-.2-.2.2.1.4.4.6.5,0,0,.2.1.3.2.4.3-.6-.3,0,0,.3.1.5.2.8.3.4.1.3,0-.2,0,.1,0,.3,0,.4,0,.3,0,.6,0,.9,0,.4,0-.8,0-.2,0,.2,0,.3,0,.5,0,.2,0,.3,0,.5,0,.3,0,0-.1-.2,0,.2-.1.6-.2.8-.3.1,0,.2-.1.4-.2.3-.1-.6.4-.1,0,.2-.1.6-.6.8-.6-.3,0-.4.4-.2.2.1-.1.2-.3.3-.4,0,0,.1-.2.2-.3,0,0,0,0,0-.1.2-.3.1-.2-.1.2,0-.2.3-.5.4-.8,0-.1,0-.2.1-.3.2-.5-.1.7,0,0,0-.3,0-.5.1-.8,0-.3-.1-.7,0,0,0-.1,0-.2,0-.3,0-.3,0-.6-.1-.9-.1-.6.2.6,0,0,0-.2-.1-.3-.2-.5,0-.1-.1-.3-.2-.4-.2-.4-.2,0,0,.1-.2,0-.4-.5-.5-.7,0,0-.4-.4,0-.1.4.3,0,0-.1,0-.2-.2-.7-.4-.8-.6,0,0,.6.3.2.1-.2,0-.3-.2-.5-.2-.1,0-.2,0-.3-.1,0,0-.6-.2-.1,0,.5.1,0,0-.1,0-.1,0-.3,0-.4,0-.1,0-.3,0-.4,0-.6,0,.6,0,0,0-.3,0-.7,0-1,.1-.6.1.5-.2.1,0-.2,0-.4.1-.6.2-.1,0-.2,0-.3.1-.1,0-.2.1-.3.2.4-.2.5-.3.2-.1-.2.2-.4.3-.7.5-.5.4.4-.5,0,0-.1.1-.2.3-.3.4-.1.1-.2.3-.3.4-.3.4.3-.6,0,0-.1.3-.3.6-.4,1-.1.3.1.2,0-.2,0,.2-.1.5-.1.7-.2,1.5-1.7,2.7-3.2,2.5-1.5-.3-2.7-1.6-2.5-3.2.6-4,3.5-7,7.4-7.9,3.6-.8,7.7.9,9.7,4,2.1,3.4,2,7.7-.5,10.9-2.5,3.2-6.6,4.2-10.4,3-4.2-1.3-6.6-5.8-6.1-10,.2-1.5,1.7-2.7,3.2-2.5,1.5.3,2.7,1.6,2.5,3.2Z" fill="#231f20"/><path d="m305,310.2c0,.2,0,.4,0,.5,0,.5,0-.2,0-.2.1.2,0,.6,0,.9,0,.1.1.4.1.5,0,0-.2-.7,0-.2.1.3.3.6.4.9.2.5-.3-.4,0-.1,0,0,.2.2.2.3,0,0,.1.2.2.3,0,0,0,0,.1.1.2.2.1.2-.2-.2.2.1.4.4.6.5,0,0,.2.1.3.2.4.3-.6-.3,0,0,.3.1.5.2.8.3.4.1.3,0-.2,0,.1,0,.3,0,.4,0,.3,0,.6,0,.9,0,.4,0-.8,0-.2,0,.2,0,.3,0,.5,0,.2,0,.3,0,.5,0,.3,0,0-.1-.2,0,.2-.1.6-.2.8-.3.1,0,.2-.1.4-.2.3-.1-.6.4-.1,0,.2-.1.6-.6.8-.6-.3,0-.4.4-.2.2.1-.1.2-.3.3-.4,0,0,.1-.2.2-.3,0,0,0,0,0-.1.2-.3.1-.2-.1.2,0-.2.3-.5.4-.8,0-.1,0-.2.1-.3.2-.5-.1.7,0,0,0-.3,0-.5.1-.8,0-.3-.1-.7,0,0,0-.1,0-.2,0-.3,0-.3,0-.6-.1-.9-.1-.6.2.6,0,0,0-.2-.1-.3-.2-.5,0-.1-.1-.3-.2-.4-.2-.4-.2,0,0,.1-.2,0-.4-.5-.5-.7,0,0-.4-.4,0-.1.4.3,0,0-.1,0-.2-.2-.7-.4-.8-.6,0,0,.6.3.2.1-.2,0-.3-.2-.5-.2-.1,0-.2,0-.3-.1,0,0-.6-.2-.1,0,.5.1,0,0-.1,0-.1,0-.3,0-.4,0-.1,0-.3,0-.4,0-.6,0,.6,0,0,0-.3,0-.7,0-1,.1-.6.1.5-.2.1,0-.2,0-.4.1-.6.2-.1,0-.2,0-.3.1-.1,0-.2.1-.3.2.4-.2.5-.3.2-.1-.2.2-.4.3-.7.5-.5.4.4-.5,0,0-.1.1-.2.3-.3.4-.1.1-.2.3-.3.4-.3.4.3-.6,0,0-.1.3-.3.6-.4,1-.1.3.1.2,0-.2,0,.2-.1.5-.1.7-.2,1.5-1.7,2.7-3.2,2.5-1.5-.3-2.7-1.6-2.5-3.2.6-4,3.5-7,7.4-7.9,3.6-.8,7.7.9,9.7,4,2.1,3.4,2,7.7-.5,10.9-2.5,3.2-6.6,4.2-10.4,3-4.2-1.3-6.6-5.8-6.1-10,.2-1.5,1.7-2.7,3.2-2.5,1.5.3,2.7,1.6,2.5,3.2Z" fill="#231f20"/></g></svg>
